# xmcd
#
# Track frame offsets:
# 150
# 16084
# 28856
# 45846
# 71272
# 86804
# 103462
# 138574
# 158262
# 173081
# 187819
# 213873
# 237398
# 254540
# 274565
#
# Disc length: 4032 seconds
#
#
# Revision: 0
# Processed by: cddbd v1.5.2PL0 Copyright (c) Steve Scherf et al.
# Submitted via: FreeRIP 2.942 
#
DISCID=bf0fbe0f
DTITLE=CEJKA BAND - BALADY Bájecnej zivot
DYEAR=2007
DGENRE=Pop
TTITLE0=Seno voní jako Amfora
TTITLE1=Pocity
TTITLE2=Andel
TTITLE3=Scházís mi jeste jsem tvá
TTITLE4=Zimní láska
TTITLE5=Kolik nocí
TTITLE6=Benesov
TTITLE7=Sbohem dám
TTITLE8=Bájecnej zivot
TTITLE9=Je mi sestnáct
TTITLE10=Dívka
TTITLE11=Svatební
TTITLE12=Princezna ze mlejna
TTITLE13=Bláznivá holka
TTITLE14=Nebe na zemi
EXTD=
EXTT0=
EXTT1=
EXTT2=
EXTT3=
EXTT4=
EXTT5=
EXTT6=
EXTT7=
EXTT8=
EXTT9=
EXTT10=
EXTT11=
EXTT12=
EXTT13=
EXTT14=
PLAYORDER=
